<?xml version="1.0" encoding="utf-8" standalone="no"?>
<!DOCTYPE svg PUBLIC "-//W3C//DTD SVG 1.1//EN"
  "http://www.w3.org/Graphics/SVG/1.1/DTD/svg11.dtd">
<svg xmlns:xlink="http://www.w3.org/1999/xlink" width="792pt" height="316.8pt" viewBox="0 0 792 316.8" xmlns="http://www.w3.org/2000/svg" version="1.1">
 <metadata>
  <rdf:RDF xmlns:dc="http://purl.org/dc/elements/1.1/" xmlns:cc="http://creativecommons.org/ns#" xmlns:rdf="http://www.w3.org/1999/02/22-rdf-syntax-ns#">
   <cc:Work>
    <dc:type rdf:resource="http://purl.org/dc/dcmitype/StillImage"/>
    <dc:date>2026-08-06T04:26:48.871552</dc:date>
    <dc:format>image/svg+xml</dc:format>
    <dc:creator>
     <cc:Agent>
      <dc:title>Matplotlib v3.11.1, https://matplotlib.org/</dc:title>
     </cc:Agent>
    </dc:creator>
   </cc:Work>
  </rdf:RDF>
 </metadata>
 <defs>
  <style type="text/css">*{stroke-linejoin: round; stroke-linecap: butt}</style>
 </defs>
 <g id="figure_1">
  <g id="patch_1">
   <path d="M 0 316.8 
L 792 316.8 
L 792 0 
L 0 0 
z
" style="fill: #fcfcfb"/>
  </g>
  <g id="axes_1">
   <g id="patch_2">
    <path d="M 43.522227 276.275781 
L 381.356965 276.275781 
L 381.356965 28.777539 
L 43.522227 28.777539 
z
" style="fill: #fcfcfb"/>
   </g>
   <g id="matplotlib.axis_1">
    <g id="xtick_1">
     <g id="line2d_1">
      <defs>
       <path id="ma38c9ecf29" d="M 0 0 
L 0 3.5 
" style="stroke: #898781; stroke-width: 0.8"/>
      </defs>
      <g>
       <use xlink:href="#ma38c9ecf29" x="82.66953" y="276.275781" style="fill: #898781; stroke: #898781; stroke-width: 0.8"/>
      </g>
     </g>
     <g id="text_1">
      <text style="font-size: 8.5px; font-family: 'DejaVu Sans', sans-serif; fill: #898781" transform="translate(73.40453 290.584619)">A-s0</text>
      <text style="font-size: 8.5px; font-family: 'DejaVu Sans', sans-serif; fill: #898781" transform="translate(64.633592 300.786279)">(aux-on)</text>
     </g>
    </g>
    <g id="xtick_2">
     <g id="line2d_2">
      <g>
       <use xlink:href="#ma38c9ecf29" x="169.182907" y="276.275781" style="fill: #898781; stroke: #898781; stroke-width: 0.8"/>
      </g>
     </g>
     <g id="text_2">
      <text style="font-size: 8.5px; font-family: 'DejaVu Sans', sans-serif; fill: #898781" transform="translate(159.917907 290.584619)">A-s1</text>
      <text style="font-size: 8.5px; font-family: 'DejaVu Sans', sans-serif; fill: #898781" transform="translate(151.14697 300.786279)">(aux-on)</text>
     </g>
    </g>
    <g id="xtick_3">
     <g id="line2d_3">
      <g>
       <use xlink:href="#ma38c9ecf29" x="255.696285" y="276.275781" style="fill: #898781; stroke: #898781; stroke-width: 0.8"/>
      </g>
     </g>
     <g id="text_3">
      <text style="font-size: 8.5px; font-family: 'DejaVu Sans', sans-serif; fill: #898781" transform="translate(246.431285 290.584619)">A-s2</text>
      <text style="font-size: 8.5px; font-family: 'DejaVu Sans', sans-serif; fill: #898781" transform="translate(237.660347 300.786279)">(aux-on)</text>
     </g>
    </g>
    <g id="xtick_4">
     <g id="line2d_4">
      <g>
       <use xlink:href="#ma38c9ecf29" x="342.209662" y="276.275781" style="fill: #898781; stroke: #898781; stroke-width: 0.8"/>
      </g>
     </g>
     <g id="text_4">
      <text style="font-size: 8.5px; font-family: 'DejaVu Sans', sans-serif; fill: #898781" transform="translate(339.293764 290.584619)">B</text>
      <text style="font-size: 8.5px; font-family: 'DejaVu Sans', sans-serif; fill: #898781" transform="translate(323.939311 300.786943)">(aux-off)</text>
     </g>
    </g>
   </g>
   <g id="matplotlib.axis_2">
    <g id="ytick_1">
     <g id="line2d_5">
      <path d="M 43.522227 276.275781 
L 381.356965 276.275781 
" clip-path="url(#pcc8b4115c5)" style="fill: none; stroke: #e1e0d9; stroke-width: 0.7; stroke-linecap: square"/>
     </g>
     <g id="line2d_6">
      <defs>
       <path id="m61ab33399c" d="M 0 0 
L -3.5 0 
" style="stroke: #898781; stroke-width: 0.8"/>
      </defs>
      <g>
       <use xlink:href="#m61ab33399c" x="43.522227" y="276.275781" style="fill: #898781; stroke: #898781; stroke-width: 0.8"/>
      </g>
     </g>
     <g id="text_5">
      <text style="font-size: 8.5px; font-family: 'DejaVu Sans', sans-serif; text-anchor: end; fill: #898781" x="36.522227" y="279.504785" transform="rotate(-0 36.522227 279.504785)">0</text>
     </g>
    </g>
    <g id="ytick_2">
     <g id="line2d_7">
      <path d="M 43.522227 238.776048 
L 381.356965 238.776048 
" clip-path="url(#pcc8b4115c5)" style="fill: none; stroke: #e1e0d9; stroke-width: 0.7; stroke-linecap: square"/>
     </g>
     <g id="line2d_8">
      <g>
       <use xlink:href="#m61ab33399c" x="43.522227" y="238.776048" style="fill: #898781; stroke: #898781; stroke-width: 0.8"/>
      </g>
     </g>
     <g id="text_6">
      <text style="font-size: 8.5px; font-family: 'DejaVu Sans', sans-serif; text-anchor: end; fill: #898781" x="36.522227" y="242.005051" transform="rotate(-0 36.522227 242.005051)">2</text>
     </g>
    </g>
    <g id="ytick_3">
     <g id="line2d_9">
      <path d="M 43.522227 201.276314 
L 381.356965 201.276314 
" clip-path="url(#pcc8b4115c5)" style="fill: none; stroke: #e1e0d9; stroke-width: 0.7; stroke-linecap: square"/>
     </g>
     <g id="line2d_10">
      <g>
       <use xlink:href="#m61ab33399c" x="43.522227" y="201.276314" style="fill: #898781; stroke: #898781; stroke-width: 0.8"/>
      </g>
     </g>
     <g id="text_7">
      <text style="font-size: 8.5px; font-family: 'DejaVu Sans', sans-serif; text-anchor: end; fill: #898781" x="36.522227" y="204.505318" transform="rotate(-0 36.522227 204.505318)">4</text>
     </g>
    </g>
    <g id="ytick_4">
     <g id="line2d_11">
      <path d="M 43.522227 163.77658 
L 381.356965 163.77658 
" clip-path="url(#pcc8b4115c5)" style="fill: none; stroke: #e1e0d9; stroke-width: 0.7; stroke-linecap: square"/>
     </g>
     <g id="line2d_12">
      <g>
       <use xlink:href="#m61ab33399c" x="43.522227" y="163.77658" style="fill: #898781; stroke: #898781; stroke-width: 0.8"/>
      </g>
     </g>
     <g id="text_8">
      <text style="font-size: 8.5px; font-family: 'DejaVu Sans', sans-serif; text-anchor: end; fill: #898781" x="36.522227" y="167.005584" transform="rotate(-0 36.522227 167.005584)">6</text>
     </g>
    </g>
    <g id="ytick_5">
     <g id="line2d_13">
      <path d="M 43.522227 126.276847 
L 381.356965 126.276847 
" clip-path="url(#pcc8b4115c5)" style="fill: none; stroke: #e1e0d9; stroke-width: 0.7; stroke-linecap: square"/>
     </g>
     <g id="line2d_14">
      <g>
       <use xlink:href="#m61ab33399c" x="43.522227" y="126.276847" style="fill: #898781; stroke: #898781; stroke-width: 0.8"/>
      </g>
     </g>
     <g id="text_9">
      <text style="font-size: 8.5px; font-family: 'DejaVu Sans', sans-serif; text-anchor: end; fill: #898781" x="36.522227" y="129.50585" transform="rotate(-0 36.522227 129.50585)">8</text>
     </g>
    </g>
    <g id="ytick_6">
     <g id="line2d_15">
      <path d="M 43.522227 88.777113 
L 381.356965 88.777113 
" clip-path="url(#pcc8b4115c5)" style="fill: none; stroke: #e1e0d9; stroke-width: 0.7; stroke-linecap: square"/>
     </g>
     <g id="line2d_16">
      <g>
       <use xlink:href="#m61ab33399c" x="43.522227" y="88.777113" style="fill: #898781; stroke: #898781; stroke-width: 0.8"/>
      </g>
     </g>
     <g id="text_10">
      <text style="font-size: 8.5px; font-family: 'DejaVu Sans', sans-serif; text-anchor: end; fill: #898781" x="36.522227" y="92.006117" transform="rotate(-0 36.522227 92.006117)">10</text>
     </g>
    </g>
    <g id="ytick_7">
     <g id="line2d_17">
      <path d="M 43.522227 51.277379 
L 381.356965 51.277379 
" clip-path="url(#pcc8b4115c5)" style="fill: none; stroke: #e1e0d9; stroke-width: 0.7; stroke-linecap: square"/>
     </g>
     <g id="line2d_18">
      <g>
       <use xlink:href="#m61ab33399c" x="43.522227" y="51.277379" style="fill: #898781; stroke: #898781; stroke-width: 0.8"/>
      </g>
     </g>
     <g id="text_11">
      <text style="font-size: 8.5px; font-family: 'DejaVu Sans', sans-serif; text-anchor: end; fill: #898781" x="36.522227" y="54.506383" transform="rotate(-0 36.522227 54.506383)">12</text>
     </g>
    </g>
    <g id="text_12">
     <text style="font-size: 9.5px; font-family: 'DejaVu Sans', sans-serif; text-anchor: middle; fill: #52514e" x="19.42375" y="152.52666" transform="rotate(-90 19.42375 152.52666)">panel chunk MAE (deg)</text>
    </g>
   </g>
   <g id="line2d_19">
    <path d="M 43.522227 55.312351 
L 381.356965 55.312351 
" clip-path="url(#pcc8b4115c5)" style="fill: none; stroke-dasharray: 5.18,2.24; stroke-dashoffset: 0; stroke: #c3c2b7; stroke-width: 1.4"/>
   </g>
   <g id="line2d_20">
    <path d="M 43.522227 167.477804 
L 381.356965 167.477804 
" clip-path="url(#pcc8b4115c5)" style="fill: none; stroke-dasharray: 1.2,1.98; stroke-dashoffset: 0; stroke: #898781; stroke-width: 1.2"/>
   </g>
   <g id="patch_3">
    <path d="M 43.522227 276.275781 
L 43.522227 28.777539 
" style="fill: none; stroke: #c3c2b7; stroke-width: 0.8; stroke-linejoin: miter; stroke-linecap: square"/>
   </g>
   <g id="patch_4">
    <path d="M 43.522227 276.275781 
L 381.356965 276.275781 
" style="fill: none; stroke: #c3c2b7; stroke-width: 0.8; stroke-linejoin: miter; stroke-linecap: square"/>
   </g>
   <g id="patch_5">
    <path d="M 58.878351 276.275781 
L 106.460709 276.275781 
L 106.460709 130.09057 
L 58.878351 130.09057 
z
" clip-path="url(#pcc8b4115c5)" style="fill: #2a78d6"/>
   </g>
   <g id="patch_6">
    <path d="M 145.391728 276.275781 
L 192.974086 276.275781 
L 192.974086 129.929321 
L 145.391728 129.929321 
z
" clip-path="url(#pcc8b4115c5)" style="fill: #2a78d6"/>
   </g>
   <g id="patch_7">
    <path d="M 231.905106 276.275781 
L 279.487464 276.275781 
L 279.487464 131.236186 
L 231.905106 131.236186 
z
" clip-path="url(#pcc8b4115c5)" style="fill: #2a78d6"/>
   </g>
   <g id="patch_8">
    <path d="M 318.418483 276.275781 
L 366.000841 276.275781 
L 366.000841 120.672511 
L 318.418483 120.672511 
z
" clip-path="url(#pcc8b4115c5)" style="fill: #eb6834"/>
   </g>
   <g id="text_13">
    <text style="font-size: 9px; font-family: 'DejaVu Sans', sans-serif; text-anchor: middle; fill: #52514e" x="82.66953" y="125.11598" transform="rotate(-0 82.66953 125.11598)">7.797</text>
   </g>
   <g id="text_14">
    <text style="font-size: 9px; font-family: 'DejaVu Sans', sans-serif; text-anchor: middle; fill: #52514e" x="169.182907" y="124.954731" transform="rotate(-0 169.182907 124.954731)">7.805</text>
   </g>
   <g id="text_15">
    <text style="font-size: 9px; font-family: 'DejaVu Sans', sans-serif; text-anchor: middle; fill: #52514e" x="255.696285" y="126.261597" transform="rotate(-0 255.696285 126.261597)">7.736</text>
   </g>
   <g id="text_16">
    <text style="font-size: 9px; font-family: 'DejaVu Sans', sans-serif; text-anchor: middle; fill: #52514e" x="342.209662" y="115.697922" transform="rotate(-0 342.209662 115.697922)">8.299</text>
   </g>
   <g id="text_17">
    <text style="font-size: 8.5px; font-family: 'DejaVu Sans', sans-serif; text-anchor: end; fill: #898781" x="389.79202" y="53.062367" transform="rotate(-0 389.79202 53.062367)">state-copy 11.78</text>
   </g>
   <g id="text_18">
    <text style="font-size: 8.5px; font-family: 'DejaVu Sans', sans-serif; text-anchor: end; fill: #898781" x="389.79202" y="177.790231" transform="rotate(-0 389.79202 177.790231)">mainline AR-100k 4xH100 5.80</text>
   </g>
   <g id="text_19">
    <text style="font-size: 10.5px; font-family: 'DejaVu Sans', sans-serif; text-anchor: middle; fill: #0b0b0b" x="212.439596" y="18.777539" transform="rotate(-0 212.439596 18.777539)">40k @ eff-10, pooled panel chunk MAE</text>
   </g>
  </g>
  <g id="axes_2">
   <g id="patch_9">
    <path d="M 443.365261 276.275781 
L 781.2 276.275781 
L 781.2 28.777539 
L 443.365261 28.777539 
z
" style="fill: #fcfcfb"/>
   </g>
   <g id="matplotlib.axis_3">
    <g id="xtick_5">
     <g id="line2d_21">
      <g>
       <use xlink:href="#ma38c9ecf29" x="484.314926" y="276.275781" style="fill: #898781; stroke: #898781; stroke-width: 0.8"/>
      </g>
     </g>
     <g id="text_20">
      <text style="font-size: 8.5px; font-family: 'DejaVu Sans', sans-serif; text-anchor: middle; fill: #898781" x="484.314926" y="289.733789" transform="rotate(-0 484.314926 289.733789)">−10</text>
     </g>
    </g>
    <g id="xtick_6">
     <g id="line2d_22">
      <g>
       <use xlink:href="#ma38c9ecf29" x="548.298779" y="276.275781" style="fill: #898781; stroke: #898781; stroke-width: 0.8"/>
      </g>
     </g>
     <g id="text_21">
      <text style="font-size: 8.5px; font-family: 'DejaVu Sans', sans-serif; text-anchor: middle; fill: #898781" x="548.298779" y="289.733789" transform="rotate(-0 548.298779 289.733789)">−5</text>
     </g>
    </g>
    <g id="xtick_7">
     <g id="line2d_23">
      <g>
       <use xlink:href="#ma38c9ecf29" x="612.282631" y="276.275781" style="fill: #898781; stroke: #898781; stroke-width: 0.8"/>
      </g>
     </g>
     <g id="text_22">
      <text style="font-size: 8.5px; font-family: 'DejaVu Sans', sans-serif; text-anchor: middle; fill: #898781" x="612.282631" y="289.733789" transform="rotate(-0 612.282631 289.733789)">0</text>
     </g>
    </g>
    <g id="xtick_8">
     <g id="line2d_24">
      <g>
       <use xlink:href="#ma38c9ecf29" x="676.266483" y="276.275781" style="fill: #898781; stroke: #898781; stroke-width: 0.8"/>
      </g>
     </g>
     <g id="text_23">
      <text style="font-size: 8.5px; font-family: 'DejaVu Sans', sans-serif; text-anchor: middle; fill: #898781" x="676.266483" y="289.733789" transform="rotate(-0 676.266483 289.733789)">5</text>
     </g>
    </g>
    <g id="xtick_9">
     <g id="line2d_25">
      <g>
       <use xlink:href="#ma38c9ecf29" x="740.250335" y="276.275781" style="fill: #898781; stroke: #898781; stroke-width: 0.8"/>
      </g>
     </g>
     <g id="text_24">
      <text style="font-size: 8.5px; font-family: 'DejaVu Sans', sans-serif; text-anchor: middle; fill: #898781" x="740.250335" y="289.733789" transform="rotate(-0 740.250335 289.733789)">10</text>
     </g>
    </g>
    <g id="text_25">
     <text style="font-size: 9.5px; font-family: 'DejaVu Sans', sans-serif; text-anchor: middle; fill: #52514e" x="612.282631" y="302.994297" transform="rotate(-0 612.282631 302.994297)">per-frame Δ chunk MAE, B − A-s0 (deg)</text>
    </g>
   </g>
   <g id="matplotlib.axis_4">
    <g id="ytick_8">
     <g id="line2d_26">
      <path d="M 443.365261 276.275781 
L 781.2 276.275781 
" clip-path="url(#pb7aed9b54c)" style="fill: none; stroke: #e1e0d9; stroke-width: 0.7; stroke-linecap: square"/>
     </g>
     <g id="line2d_27">
      <g>
       <use xlink:href="#m61ab33399c" x="443.365261" y="276.275781" style="fill: #898781; stroke: #898781; stroke-width: 0.8"/>
      </g>
     </g>
     <g id="text_26">
      <text style="font-size: 8.5px; font-family: 'DejaVu Sans', sans-serif; text-anchor: end; fill: #898781" x="436.365261" y="279.504785" transform="rotate(-0 436.365261 279.504785)">0</text>
     </g>
    </g>
    <g id="ytick_9">
     <g id="line2d_28">
      <path d="M 443.365261 231.616325 
L 781.2 231.616325 
" clip-path="url(#pb7aed9b54c)" style="fill: none; stroke: #e1e0d9; stroke-width: 0.7; stroke-linecap: square"/>
     </g>
     <g id="line2d_29">
      <g>
       <use xlink:href="#m61ab33399c" x="443.365261" y="231.616325" style="fill: #898781; stroke: #898781; stroke-width: 0.8"/>
      </g>
     </g>
     <g id="text_27">
      <text style="font-size: 8.5px; font-family: 'DejaVu Sans', sans-serif; text-anchor: end; fill: #898781" x="436.365261" y="234.845329" transform="rotate(-0 436.365261 234.845329)">500</text>
     </g>
    </g>
    <g id="ytick_10">
     <g id="line2d_30">
      <path d="M 443.365261 186.956868 
L 781.2 186.956868 
" clip-path="url(#pb7aed9b54c)" style="fill: none; stroke: #e1e0d9; stroke-width: 0.7; stroke-linecap: square"/>
     </g>
     <g id="line2d_31">
      <g>
       <use xlink:href="#m61ab33399c" x="443.365261" y="186.956868" style="fill: #898781; stroke: #898781; stroke-width: 0.8"/>
      </g>
     </g>
     <g id="text_28">
      <text style="font-size: 8.5px; font-family: 'DejaVu Sans', sans-serif; text-anchor: end; fill: #898781" x="436.365261" y="190.185872" transform="rotate(-0 436.365261 190.185872)">1000</text>
     </g>
    </g>
    <g id="ytick_11">
     <g id="line2d_32">
      <path d="M 443.365261 142.297412 
L 781.2 142.297412 
" clip-path="url(#pb7aed9b54c)" style="fill: none; stroke: #e1e0d9; stroke-width: 0.7; stroke-linecap: square"/>
     </g>
     <g id="line2d_33">
      <g>
       <use xlink:href="#m61ab33399c" x="443.365261" y="142.297412" style="fill: #898781; stroke: #898781; stroke-width: 0.8"/>
      </g>
     </g>
     <g id="text_29">
      <text style="font-size: 8.5px; font-family: 'DejaVu Sans', sans-serif; text-anchor: end; fill: #898781" x="436.365261" y="145.526416" transform="rotate(-0 436.365261 145.526416)">1500</text>
     </g>
    </g>
    <g id="ytick_12">
     <g id="line2d_34">
      <path d="M 443.365261 97.637955 
L 781.2 97.637955 
" clip-path="url(#pb7aed9b54c)" style="fill: none; stroke: #e1e0d9; stroke-width: 0.7; stroke-linecap: square"/>
     </g>
     <g id="line2d_35">
      <g>
       <use xlink:href="#m61ab33399c" x="443.365261" y="97.637955" style="fill: #898781; stroke: #898781; stroke-width: 0.8"/>
      </g>
     </g>
     <g id="text_30">
      <text style="font-size: 8.5px; font-family: 'DejaVu Sans', sans-serif; text-anchor: end; fill: #898781" x="436.365261" y="100.866959" transform="rotate(-0 436.365261 100.866959)">2000</text>
     </g>
    </g>
    <g id="ytick_13">
     <g id="line2d_36">
      <path d="M 443.365261 52.978499 
L 781.2 52.978499 
" clip-path="url(#pb7aed9b54c)" style="fill: none; stroke: #e1e0d9; stroke-width: 0.7; stroke-linecap: square"/>
     </g>
     <g id="line2d_37">
      <g>
       <use xlink:href="#m61ab33399c" x="443.365261" y="52.978499" style="fill: #898781; stroke: #898781; stroke-width: 0.8"/>
      </g>
     </g>
     <g id="text_31">
      <text style="font-size: 8.5px; font-family: 'DejaVu Sans', sans-serif; text-anchor: end; fill: #898781" x="436.365261" y="56.207502" transform="rotate(-0 436.365261 56.207502)">2500</text>
     </g>
    </g>
    <g id="text_32">
     <text style="font-size: 9.5px; font-family: 'DejaVu Sans', sans-serif; text-anchor: middle; fill: #52514e" x="408.450535" y="152.52666" transform="rotate(-90 408.450535 152.52666)">core frames</text>
    </g>
   </g>
   <g id="patch_10">
    <path d="M 617.232805 276.275781 
L 619.160127 276.275781 
L 619.160127 28.777539 
L 617.232805 28.777539 
z
" clip-path="url(#pb7aed9b54c)" style="fill: #e34948; opacity: 0.18; stroke: #e34948; stroke-linejoin: miter"/>
   </g>
   <g id="patch_11">
    <path d="M 443.365261 276.275781 
L 443.365261 28.777539 
" style="fill: none; stroke: #c3c2b7; stroke-width: 0.8; stroke-linejoin: miter; stroke-linecap: square"/>
   </g>
   <g id="patch_12">
    <path d="M 443.365261 276.275781 
L 781.2 276.275781 
" style="fill: none; stroke: #c3c2b7; stroke-width: 0.8; stroke-linejoin: miter; stroke-linecap: square"/>
   </g>
   <g id="patch_13">
    <path d="M 458.721386 276.275781 
L 463.840094 276.275781 
L 463.840094 259.215869 
L 458.721386 259.215869 
z
" clip-path="url(#pb7aed9b54c)" style="fill: #2a78d6"/>
   </g>
   <g id="patch_14">
    <path d="M 463.840094 276.275781 
L 468.958802 276.275781 
L 468.958802 275.293273 
L 463.840094 275.293273 
z
" clip-path="url(#pb7aed9b54c)" style="fill: #2a78d6"/>
   </g>
   <g id="patch_15">
    <path d="M 468.958802 276.275781 
L 474.07751 276.275781 
L 474.07751 275.382592 
L 468.958802 275.382592 
z
" clip-path="url(#pb7aed9b54c)" style="fill: #2a78d6"/>
   </g>
   <g id="patch_16">
    <path d="M 474.07751 276.275781 
L 479.196218 276.275781 
L 479.196218 274.846679 
L 474.07751 274.846679 
z
" clip-path="url(#pb7aed9b54c)" style="fill: #2a78d6"/>
   </g>
   <g id="patch_17">
    <path d="M 479.196218 276.275781 
L 484.314926 276.275781 
L 484.314926 275.025316 
L 479.196218 275.025316 
z
" clip-path="url(#pb7aed9b54c)" style="fill: #2a78d6"/>
   </g>
   <g id="patch_18">
    <path d="M 484.314926 276.275781 
L 489.433635 276.275781 
L 489.433635 275.114635 
L 484.314926 275.114635 
z
" clip-path="url(#pb7aed9b54c)" style="fill: #2a78d6"/>
   </g>
   <g id="patch_19">
    <path d="M 489.433635 276.275781 
L 494.552343 276.275781 
L 494.552343 275.471911 
L 489.433635 275.471911 
z
" clip-path="url(#pb7aed9b54c)" style="fill: #2a78d6"/>
   </g>
   <g id="patch_20">
    <path d="M 494.552343 276.275781 
L 499.671051 276.275781 
L 499.671051 274.489403 
L 494.552343 274.489403 
z
" clip-path="url(#pb7aed9b54c)" style="fill: #2a78d6"/>
   </g>
   <g id="patch_21">
    <path d="M 499.671051 276.275781 
L 504.789759 276.275781 
L 504.789759 274.489403 
L 499.671051 274.489403 
z
" clip-path="url(#pb7aed9b54c)" style="fill: #2a78d6"/>
   </g>
   <g id="patch_22">
    <path d="M 504.789759 276.275781 
L 509.908467 276.275781 
L 509.908467 273.238938 
L 504.789759 273.238938 
z
" clip-path="url(#pb7aed9b54c)" style="fill: #2a78d6"/>
   </g>
   <g id="patch_23">
    <path d="M 509.908467 276.275781 
L 515.027175 276.275781 
L 515.027175 273.685533 
L 509.908467 273.685533 
z
" clip-path="url(#pb7aed9b54c)" style="fill: #2a78d6"/>
   </g>
   <g id="patch_24">
    <path d="M 515.027175 276.275781 
L 520.145884 276.275781 
L 520.145884 274.042808 
L 515.027175 274.042808 
z
" clip-path="url(#pb7aed9b54c)" style="fill: #2a78d6"/>
   </g>
   <g id="patch_25">
    <path d="M 520.145884 276.275781 
L 525.264592 276.275781 
L 525.264592 272.703025 
L 520.145884 272.703025 
z
" clip-path="url(#pb7aed9b54c)" style="fill: #2a78d6"/>
   </g>
   <g id="patch_26">
    <path d="M 525.264592 276.275781 
L 530.3833 276.275781 
L 530.3833 271.184603 
L 525.264592 271.184603 
z
" clip-path="url(#pb7aed9b54c)" style="fill: #2a78d6"/>
   </g>
   <g id="patch_27">
    <path d="M 530.3833 276.275781 
L 535.502008 276.275781 
L 535.502008 272.613706 
L 530.3833 272.613706 
z
" clip-path="url(#pb7aed9b54c)" style="fill: #2a78d6"/>
   </g>
   <g id="patch_28">
    <path d="M 535.502008 276.275781 
L 540.620716 276.275781 
L 540.620716 271.184603 
L 535.502008 271.184603 
z
" clip-path="url(#pb7aed9b54c)" style="fill: #2a78d6"/>
   </g>
   <g id="patch_29">
    <path d="M 540.620716 276.275781 
L 545.739424 276.275781 
L 545.739424 271.095284 
L 540.620716 271.095284 
z
" clip-path="url(#pb7aed9b54c)" style="fill: #2a78d6"/>
   </g>
   <g id="patch_30">
    <path d="M 545.739424 276.275781 
L 550.858133 276.275781 
L 550.858133 269.398225 
L 545.739424 269.398225 
z
" clip-path="url(#pb7aed9b54c)" style="fill: #2a78d6"/>
   </g>
   <g id="patch_31">
    <path d="M 550.858133 276.275781 
L 555.976841 276.275781 
L 555.976841 266.54002 
L 550.858133 266.54002 
z
" clip-path="url(#pb7aed9b54c)" style="fill: #2a78d6"/>
   </g>
   <g id="patch_32">
    <path d="M 555.976841 276.275781 
L 561.095549 276.275781 
L 561.095549 264.84296 
L 555.976841 264.84296 
z
" clip-path="url(#pb7aed9b54c)" style="fill: #2a78d6"/>
   </g>
   <g id="patch_33">
    <path d="M 561.095549 276.275781 
L 566.214257 276.275781 
L 566.214257 263.324539 
L 561.095549 263.324539 
z
" clip-path="url(#pb7aed9b54c)" style="fill: #2a78d6"/>
   </g>
   <g id="patch_34">
    <path d="M 566.214257 276.275781 
L 571.332965 276.275781 
L 571.332965 258.054723 
L 566.214257 258.054723 
z
" clip-path="url(#pb7aed9b54c)" style="fill: #2a78d6"/>
   </g>
   <g id="patch_35">
    <path d="M 571.332965 276.275781 
L 576.451673 276.275781 
L 576.451673 254.392648 
L 571.332965 254.392648 
z
" clip-path="url(#pb7aed9b54c)" style="fill: #2a78d6"/>
   </g>
   <g id="patch_36">
    <path d="M 576.451673 276.275781 
L 581.570382 276.275781 
L 581.570382 249.033513 
L 576.451673 249.033513 
z
" clip-path="url(#pb7aed9b54c)" style="fill: #2a78d6"/>
   </g>
   <g id="patch_37">
    <path d="M 581.570382 276.275781 
L 586.68909 276.275781 
L 586.68909 241.173448 
L 581.570382 241.173448 
z
" clip-path="url(#pb7aed9b54c)" style="fill: #2a78d6"/>
   </g>
   <g id="patch_38">
    <path d="M 586.68909 276.275781 
L 591.807798 276.275781 
L 591.807798 230.276541 
L 586.68909 230.276541 
z
" clip-path="url(#pb7aed9b54c)" style="fill: #2a78d6"/>
   </g>
   <g id="patch_39">
    <path d="M 591.807798 276.275781 
L 596.926506 276.275781 
L 596.926506 213.305948 
L 591.807798 213.305948 
z
" clip-path="url(#pb7aed9b54c)" style="fill: #2a78d6"/>
   </g>
   <g id="patch_40">
    <path d="M 596.926506 276.275781 
L 602.045214 276.275781 
L 602.045214 190.350987 
L 596.926506 190.350987 
z
" clip-path="url(#pb7aed9b54c)" style="fill: #2a78d6"/>
   </g>
   <g id="patch_41">
    <path d="M 602.045214 276.275781 
L 607.163922 276.275781 
L 607.163922 148.013822 
L 602.045214 148.013822 
z
" clip-path="url(#pb7aed9b54c)" style="fill: #2a78d6"/>
   </g>
   <g id="patch_42">
    <path d="M 607.163922 276.275781 
L 612.282631 276.275781 
L 612.282631 40.56317 
L 607.163922 40.56317 
z
" clip-path="url(#pb7aed9b54c)" style="fill: #2a78d6"/>
   </g>
   <g id="patch_43">
    <path d="M 612.282631 276.275781 
L 617.401339 276.275781 
L 617.401339 276.275781 
L 612.282631 276.275781 
z
" clip-path="url(#pb7aed9b54c)" style="fill: #2a78d6"/>
   </g>
   <g id="patch_44">
    <path d="M 617.401339 276.275781 
L 622.520047 276.275781 
L 622.520047 276.275781 
L 617.401339 276.275781 
z
" clip-path="url(#pb7aed9b54c)" style="fill: #2a78d6"/>
   </g>
   <g id="patch_45">
    <path d="M 622.520047 276.275781 
L 627.638755 276.275781 
L 627.638755 276.275781 
L 622.520047 276.275781 
z
" clip-path="url(#pb7aed9b54c)" style="fill: #2a78d6"/>
   </g>
   <g id="patch_46">
    <path d="M 627.638755 276.275781 
L 632.757463 276.275781 
L 632.757463 276.275781 
L 627.638755 276.275781 
z
" clip-path="url(#pb7aed9b54c)" style="fill: #2a78d6"/>
   </g>
   <g id="patch_47">
    <path d="M 632.757463 276.275781 
L 637.876171 276.275781 
L 637.876171 276.275781 
L 632.757463 276.275781 
z
" clip-path="url(#pb7aed9b54c)" style="fill: #2a78d6"/>
   </g>
   <g id="patch_48">
    <path d="M 637.876171 276.275781 
L 642.99488 276.275781 
L 642.99488 276.275781 
L 637.876171 276.275781 
z
" clip-path="url(#pb7aed9b54c)" style="fill: #2a78d6"/>
   </g>
   <g id="patch_49">
    <path d="M 642.99488 276.275781 
L 648.113588 276.275781 
L 648.113588 276.275781 
L 642.99488 276.275781 
z
" clip-path="url(#pb7aed9b54c)" style="fill: #2a78d6"/>
   </g>
   <g id="patch_50">
    <path d="M 648.113588 276.275781 
L 653.232296 276.275781 
L 653.232296 276.275781 
L 648.113588 276.275781 
z
" clip-path="url(#pb7aed9b54c)" style="fill: #2a78d6"/>
   </g>
   <g id="patch_51">
    <path d="M 653.232296 276.275781 
L 658.351004 276.275781 
L 658.351004 276.275781 
L 653.232296 276.275781 
z
" clip-path="url(#pb7aed9b54c)" style="fill: #2a78d6"/>
   </g>
   <g id="patch_52">
    <path d="M 658.351004 276.275781 
L 663.469712 276.275781 
L 663.469712 276.275781 
L 658.351004 276.275781 
z
" clip-path="url(#pb7aed9b54c)" style="fill: #2a78d6"/>
   </g>
   <g id="patch_53">
    <path d="M 663.469712 276.275781 
L 668.58842 276.275781 
L 668.58842 276.275781 
L 663.469712 276.275781 
z
" clip-path="url(#pb7aed9b54c)" style="fill: #2a78d6"/>
   </g>
   <g id="patch_54">
    <path d="M 668.58842 276.275781 
L 673.707129 276.275781 
L 673.707129 276.275781 
L 668.58842 276.275781 
z
" clip-path="url(#pb7aed9b54c)" style="fill: #2a78d6"/>
   </g>
   <g id="patch_55">
    <path d="M 673.707129 276.275781 
L 678.825837 276.275781 
L 678.825837 276.275781 
L 673.707129 276.275781 
z
" clip-path="url(#pb7aed9b54c)" style="fill: #2a78d6"/>
   </g>
   <g id="patch_56">
    <path d="M 678.825837 276.275781 
L 683.944545 276.275781 
L 683.944545 276.275781 
L 678.825837 276.275781 
z
" clip-path="url(#pb7aed9b54c)" style="fill: #2a78d6"/>
   </g>
   <g id="patch_57">
    <path d="M 683.944545 276.275781 
L 689.063253 276.275781 
L 689.063253 276.275781 
L 683.944545 276.275781 
z
" clip-path="url(#pb7aed9b54c)" style="fill: #2a78d6"/>
   </g>
   <g id="patch_58">
    <path d="M 689.063253 276.275781 
L 694.181961 276.275781 
L 694.181961 276.275781 
L 689.063253 276.275781 
z
" clip-path="url(#pb7aed9b54c)" style="fill: #2a78d6"/>
   </g>
   <g id="patch_59">
    <path d="M 694.181961 276.275781 
L 699.300669 276.275781 
L 699.300669 276.275781 
L 694.181961 276.275781 
z
" clip-path="url(#pb7aed9b54c)" style="fill: #2a78d6"/>
   </g>
   <g id="patch_60">
    <path d="M 699.300669 276.275781 
L 704.419378 276.275781 
L 704.419378 276.275781 
L 699.300669 276.275781 
z
" clip-path="url(#pb7aed9b54c)" style="fill: #2a78d6"/>
   </g>
   <g id="patch_61">
    <path d="M 704.419378 276.275781 
L 709.538086 276.275781 
L 709.538086 276.275781 
L 704.419378 276.275781 
z
" clip-path="url(#pb7aed9b54c)" style="fill: #2a78d6"/>
   </g>
   <g id="patch_62">
    <path d="M 709.538086 276.275781 
L 714.656794 276.275781 
L 714.656794 276.275781 
L 709.538086 276.275781 
z
" clip-path="url(#pb7aed9b54c)" style="fill: #2a78d6"/>
   </g>
   <g id="patch_63">
    <path d="M 714.656794 276.275781 
L 719.775502 276.275781 
L 719.775502 276.275781 
L 714.656794 276.275781 
z
" clip-path="url(#pb7aed9b54c)" style="fill: #2a78d6"/>
   </g>
   <g id="patch_64">
    <path d="M 719.775502 276.275781 
L 724.89421 276.275781 
L 724.89421 276.275781 
L 719.775502 276.275781 
z
" clip-path="url(#pb7aed9b54c)" style="fill: #2a78d6"/>
   </g>
   <g id="patch_65">
    <path d="M 724.89421 276.275781 
L 730.012918 276.275781 
L 730.012918 276.275781 
L 724.89421 276.275781 
z
" clip-path="url(#pb7aed9b54c)" style="fill: #2a78d6"/>
   </g>
   <g id="patch_66">
    <path d="M 730.012918 276.275781 
L 735.131627 276.275781 
L 735.131627 276.275781 
L 730.012918 276.275781 
z
" clip-path="url(#pb7aed9b54c)" style="fill: #2a78d6"/>
   </g>
   <g id="patch_67">
    <path d="M 735.131627 276.275781 
L 740.250335 276.275781 
L 740.250335 276.275781 
L 735.131627 276.275781 
z
" clip-path="url(#pb7aed9b54c)" style="fill: #2a78d6"/>
   </g>
   <g id="patch_68">
    <path d="M 740.250335 276.275781 
L 745.369043 276.275781 
L 745.369043 276.275781 
L 740.250335 276.275781 
z
" clip-path="url(#pb7aed9b54c)" style="fill: #2a78d6"/>
   </g>
   <g id="patch_69">
    <path d="M 745.369043 276.275781 
L 750.487751 276.275781 
L 750.487751 276.275781 
L 745.369043 276.275781 
z
" clip-path="url(#pb7aed9b54c)" style="fill: #2a78d6"/>
   </g>
   <g id="patch_70">
    <path d="M 750.487751 276.275781 
L 755.606459 276.275781 
L 755.606459 276.275781 
L 750.487751 276.275781 
z
" clip-path="url(#pb7aed9b54c)" style="fill: #2a78d6"/>
   </g>
   <g id="patch_71">
    <path d="M 755.606459 276.275781 
L 760.725167 276.275781 
L 760.725167 276.275781 
L 755.606459 276.275781 
z
" clip-path="url(#pb7aed9b54c)" style="fill: #2a78d6"/>
   </g>
   <g id="patch_72">
    <path d="M 760.725167 276.275781 
L 765.843876 276.275781 
L 765.843876 276.275781 
L 760.725167 276.275781 
z
" clip-path="url(#pb7aed9b54c)" style="fill: #2a78d6"/>
   </g>
   <g id="patch_73">
    <path d="M 458.721386 276.275781 
L 463.840094 276.275781 
L 463.840094 276.275781 
L 458.721386 276.275781 
z
" clip-path="url(#pb7aed9b54c)" style="fill: #e34948"/>
   </g>
   <g id="patch_74">
    <path d="M 463.840094 276.275781 
L 468.958802 276.275781 
L 468.958802 276.275781 
L 463.840094 276.275781 
z
" clip-path="url(#pb7aed9b54c)" style="fill: #e34948"/>
   </g>
   <g id="patch_75">
    <path d="M 468.958802 276.275781 
L 474.07751 276.275781 
L 474.07751 276.275781 
L 468.958802 276.275781 
z
" clip-path="url(#pb7aed9b54c)" style="fill: #e34948"/>
   </g>
   <g id="patch_76">
    <path d="M 474.07751 276.275781 
L 479.196218 276.275781 
L 479.196218 276.275781 
L 474.07751 276.275781 
z
" clip-path="url(#pb7aed9b54c)" style="fill: #e34948"/>
   </g>
   <g id="patch_77">
    <path d="M 479.196218 276.275781 
L 484.314926 276.275781 
L 484.314926 276.275781 
L 479.196218 276.275781 
z
" clip-path="url(#pb7aed9b54c)" style="fill: #e34948"/>
   </g>
   <g id="patch_78">
    <path d="M 484.314926 276.275781 
L 489.433635 276.275781 
L 489.433635 276.275781 
L 484.314926 276.275781 
z
" clip-path="url(#pb7aed9b54c)" style="fill: #e34948"/>
   </g>
   <g id="patch_79">
    <path d="M 489.433635 276.275781 
L 494.552343 276.275781 
L 494.552343 276.275781 
L 489.433635 276.275781 
z
" clip-path="url(#pb7aed9b54c)" style="fill: #e34948"/>
   </g>
   <g id="patch_80">
    <path d="M 494.552343 276.275781 
L 499.671051 276.275781 
L 499.671051 276.275781 
L 494.552343 276.275781 
z
" clip-path="url(#pb7aed9b54c)" style="fill: #e34948"/>
   </g>
   <g id="patch_81">
    <path d="M 499.671051 276.275781 
L 504.789759 276.275781 
L 504.789759 276.275781 
L 499.671051 276.275781 
z
" clip-path="url(#pb7aed9b54c)" style="fill: #e34948"/>
   </g>
   <g id="patch_82">
    <path d="M 504.789759 276.275781 
L 509.908467 276.275781 
L 509.908467 276.275781 
L 504.789759 276.275781 
z
" clip-path="url(#pb7aed9b54c)" style="fill: #e34948"/>
   </g>
   <g id="patch_83">
    <path d="M 509.908467 276.275781 
L 515.027175 276.275781 
L 515.027175 276.275781 
L 509.908467 276.275781 
z
" clip-path="url(#pb7aed9b54c)" style="fill: #e34948"/>
   </g>
   <g id="patch_84">
    <path d="M 515.027175 276.275781 
L 520.145884 276.275781 
L 520.145884 276.275781 
L 515.027175 276.275781 
z
" clip-path="url(#pb7aed9b54c)" style="fill: #e34948"/>
   </g>
   <g id="patch_85">
    <path d="M 520.145884 276.275781 
L 525.264592 276.275781 
L 525.264592 276.275781 
L 520.145884 276.275781 
z
" clip-path="url(#pb7aed9b54c)" style="fill: #e34948"/>
   </g>
   <g id="patch_86">
    <path d="M 525.264592 276.275781 
L 530.3833 276.275781 
L 530.3833 276.275781 
L 525.264592 276.275781 
z
" clip-path="url(#pb7aed9b54c)" style="fill: #e34948"/>
   </g>
   <g id="patch_87">
    <path d="M 530.3833 276.275781 
L 535.502008 276.275781 
L 535.502008 276.275781 
L 530.3833 276.275781 
z
" clip-path="url(#pb7aed9b54c)" style="fill: #e34948"/>
   </g>
   <g id="patch_88">
    <path d="M 535.502008 276.275781 
L 540.620716 276.275781 
L 540.620716 276.275781 
L 535.502008 276.275781 
z
" clip-path="url(#pb7aed9b54c)" style="fill: #e34948"/>
   </g>
   <g id="patch_89">
    <path d="M 540.620716 276.275781 
L 545.739424 276.275781 
L 545.739424 276.275781 
L 540.620716 276.275781 
z
" clip-path="url(#pb7aed9b54c)" style="fill: #e34948"/>
   </g>
   <g id="patch_90">
    <path d="M 545.739424 276.275781 
L 550.858133 276.275781 
L 550.858133 276.275781 
L 545.739424 276.275781 
z
" clip-path="url(#pb7aed9b54c)" style="fill: #e34948"/>
   </g>
   <g id="patch_91">
    <path d="M 550.858133 276.275781 
L 555.976841 276.275781 
L 555.976841 276.275781 
L 550.858133 276.275781 
z
" clip-path="url(#pb7aed9b54c)" style="fill: #e34948"/>
   </g>
   <g id="patch_92">
    <path d="M 555.976841 276.275781 
L 561.095549 276.275781 
L 561.095549 276.275781 
L 555.976841 276.275781 
z
" clip-path="url(#pb7aed9b54c)" style="fill: #e34948"/>
   </g>
   <g id="patch_93">
    <path d="M 561.095549 276.275781 
L 566.214257 276.275781 
L 566.214257 276.275781 
L 561.095549 276.275781 
z
" clip-path="url(#pb7aed9b54c)" style="fill: #e34948"/>
   </g>
   <g id="patch_94">
    <path d="M 566.214257 276.275781 
L 571.332965 276.275781 
L 571.332965 276.275781 
L 566.214257 276.275781 
z
" clip-path="url(#pb7aed9b54c)" style="fill: #e34948"/>
   </g>
   <g id="patch_95">
    <path d="M 571.332965 276.275781 
L 576.451673 276.275781 
L 576.451673 276.275781 
L 571.332965 276.275781 
z
" clip-path="url(#pb7aed9b54c)" style="fill: #e34948"/>
   </g>
   <g id="patch_96">
    <path d="M 576.451673 276.275781 
L 581.570382 276.275781 
L 581.570382 276.275781 
L 576.451673 276.275781 
z
" clip-path="url(#pb7aed9b54c)" style="fill: #e34948"/>
   </g>
   <g id="patch_97">
    <path d="M 581.570382 276.275781 
L 586.68909 276.275781 
L 586.68909 276.275781 
L 581.570382 276.275781 
z
" clip-path="url(#pb7aed9b54c)" style="fill: #e34948"/>
   </g>
   <g id="patch_98">
    <path d="M 586.68909 276.275781 
L 591.807798 276.275781 
L 591.807798 276.275781 
L 586.68909 276.275781 
z
" clip-path="url(#pb7aed9b54c)" style="fill: #e34948"/>
   </g>
   <g id="patch_99">
    <path d="M 591.807798 276.275781 
L 596.926506 276.275781 
L 596.926506 276.275781 
L 591.807798 276.275781 
z
" clip-path="url(#pb7aed9b54c)" style="fill: #e34948"/>
   </g>
   <g id="patch_100">
    <path d="M 596.926506 276.275781 
L 602.045214 276.275781 
L 602.045214 276.275781 
L 596.926506 276.275781 
z
" clip-path="url(#pb7aed9b54c)" style="fill: #e34948"/>
   </g>
   <g id="patch_101">
    <path d="M 602.045214 276.275781 
L 607.163922 276.275781 
L 607.163922 276.275781 
L 602.045214 276.275781 
z
" clip-path="url(#pb7aed9b54c)" style="fill: #e34948"/>
   </g>
   <g id="patch_102">
    <path d="M 607.163922 276.275781 
L 612.282631 276.275781 
L 612.282631 276.275781 
L 607.163922 276.275781 
z
" clip-path="url(#pb7aed9b54c)" style="fill: #e34948"/>
   </g>
   <g id="patch_103">
    <path d="M 612.282631 276.275781 
L 617.401339 276.275781 
L 617.401339 57.444444 
L 612.282631 57.444444 
z
" clip-path="url(#pb7aed9b54c)" style="fill: #e34948"/>
   </g>
   <g id="patch_104">
    <path d="M 617.401339 276.275781 
L 622.520047 276.275781 
L 622.520047 167.128069 
L 617.401339 167.128069 
z
" clip-path="url(#pb7aed9b54c)" style="fill: #e34948"/>
   </g>
   <g id="patch_105">
    <path d="M 622.520047 276.275781 
L 627.638755 276.275781 
L 627.638755 192.851916 
L 622.520047 192.851916 
z
" clip-path="url(#pb7aed9b54c)" style="fill: #e34948"/>
   </g>
   <g id="patch_106">
    <path d="M 627.638755 276.275781 
L 632.757463 276.275781 
L 632.757463 220.362142 
L 627.638755 220.362142 
z
" clip-path="url(#pb7aed9b54c)" style="fill: #e34948"/>
   </g>
   <g id="patch_107">
    <path d="M 632.757463 276.275781 
L 637.876171 276.275781 
L 637.876171 230.812454 
L 632.757463 230.812454 
z
" clip-path="url(#pb7aed9b54c)" style="fill: #e34948"/>
   </g>
   <g id="patch_108">
    <path d="M 637.876171 276.275781 
L 642.99488 276.275781 
L 642.99488 239.565708 
L 637.876171 239.565708 
z
" clip-path="url(#pb7aed9b54c)" style="fill: #e34948"/>
   </g>
   <g id="patch_109">
    <path d="M 642.99488 276.275781 
L 648.113588 276.275781 
L 648.113588 247.068497 
L 642.99488 247.068497 
z
" clip-path="url(#pb7aed9b54c)" style="fill: #e34948"/>
   </g>
   <g id="patch_110">
    <path d="M 648.113588 276.275781 
L 653.232296 276.275781 
L 653.232296 250.10534 
L 648.113588 250.10534 
z
" clip-path="url(#pb7aed9b54c)" style="fill: #e34948"/>
   </g>
   <g id="patch_111">
    <path d="M 653.232296 276.275781 
L 658.351004 276.275781 
L 658.351004 255.911069 
L 653.232296 255.911069 
z
" clip-path="url(#pb7aed9b54c)" style="fill: #e34948"/>
   </g>
   <g id="patch_112">
    <path d="M 658.351004 276.275781 
L 663.469712 276.275781 
L 663.469712 260.73429 
L 658.351004 260.73429 
z
" clip-path="url(#pb7aed9b54c)" style="fill: #e34948"/>
   </g>
   <g id="patch_113">
    <path d="M 663.469712 276.275781 
L 668.58842 276.275781 
L 668.58842 262.43135 
L 663.469712 262.43135 
z
" clip-path="url(#pb7aed9b54c)" style="fill: #e34948"/>
   </g>
   <g id="patch_114">
    <path d="M 668.58842 276.275781 
L 673.707129 276.275781 
L 673.707129 265.73615 
L 668.58842 265.73615 
z
" clip-path="url(#pb7aed9b54c)" style="fill: #e34948"/>
   </g>
   <g id="patch_115">
    <path d="M 673.707129 276.275781 
L 678.825837 276.275781 
L 678.825837 265.646831 
L 673.707129 265.646831 
z
" clip-path="url(#pb7aed9b54c)" style="fill: #e34948"/>
   </g>
   <g id="patch_116">
    <path d="M 678.825837 276.275781 
L 683.944545 276.275781 
L 683.944545 269.040949 
L 678.825837 269.040949 
z
" clip-path="url(#pb7aed9b54c)" style="fill: #e34948"/>
   </g>
   <g id="patch_117">
    <path d="M 683.944545 276.275781 
L 689.063253 276.275781 
L 689.063253 270.023457 
L 683.944545 270.023457 
z
" clip-path="url(#pb7aed9b54c)" style="fill: #e34948"/>
   </g>
   <g id="patch_118">
    <path d="M 689.063253 276.275781 
L 694.181961 276.275781 
L 694.181961 270.64869 
L 689.063253 270.64869 
z
" clip-path="url(#pb7aed9b54c)" style="fill: #e34948"/>
   </g>
   <g id="patch_119">
    <path d="M 694.181961 276.275781 
L 699.300669 276.275781 
L 699.300669 271.541879 
L 694.181961 271.541879 
z
" clip-path="url(#pb7aed9b54c)" style="fill: #e34948"/>
   </g>
   <g id="patch_120">
    <path d="M 699.300669 276.275781 
L 704.419378 276.275781 
L 704.419378 272.25643 
L 699.300669 272.25643 
z
" clip-path="url(#pb7aed9b54c)" style="fill: #e34948"/>
   </g>
   <g id="patch_121">
    <path d="M 704.419378 276.275781 
L 709.538086 276.275781 
L 709.538086 271.809836 
L 704.419378 271.809836 
z
" clip-path="url(#pb7aed9b54c)" style="fill: #e34948"/>
   </g>
   <g id="patch_122">
    <path d="M 709.538086 276.275781 
L 714.656794 276.275781 
L 714.656794 272.25643 
L 709.538086 272.25643 
z
" clip-path="url(#pb7aed9b54c)" style="fill: #e34948"/>
   </g>
   <g id="patch_123">
    <path d="M 714.656794 276.275781 
L 719.775502 276.275781 
L 719.775502 272.435068 
L 714.656794 272.435068 
z
" clip-path="url(#pb7aed9b54c)" style="fill: #e34948"/>
   </g>
   <g id="patch_124">
    <path d="M 719.775502 276.275781 
L 724.89421 276.275781 
L 724.89421 272.792344 
L 719.775502 272.792344 
z
" clip-path="url(#pb7aed9b54c)" style="fill: #e34948"/>
   </g>
   <g id="patch_125">
    <path d="M 724.89421 276.275781 
L 730.012918 276.275781 
L 730.012918 273.95349 
L 724.89421 273.95349 
z
" clip-path="url(#pb7aed9b54c)" style="fill: #e34948"/>
   </g>
   <g id="patch_126">
    <path d="M 730.012918 276.275781 
L 735.131627 276.275781 
L 735.131627 273.506895 
L 730.012918 273.506895 
z
" clip-path="url(#pb7aed9b54c)" style="fill: #e34948"/>
   </g>
   <g id="patch_127">
    <path d="M 735.131627 276.275781 
L 740.250335 276.275781 
L 740.250335 274.578722 
L 735.131627 274.578722 
z
" clip-path="url(#pb7aed9b54c)" style="fill: #e34948"/>
   </g>
   <g id="patch_128">
    <path d="M 740.250335 276.275781 
L 745.369043 276.275781 
L 745.369043 274.221446 
L 740.250335 274.221446 
z
" clip-path="url(#pb7aed9b54c)" style="fill: #e34948"/>
   </g>
   <g id="patch_129">
    <path d="M 745.369043 276.275781 
L 750.487751 276.275781 
L 750.487751 273.95349 
L 745.369043 273.95349 
z
" clip-path="url(#pb7aed9b54c)" style="fill: #e34948"/>
   </g>
   <g id="patch_130">
    <path d="M 750.487751 276.275781 
L 755.606459 276.275781 
L 755.606459 275.382592 
L 750.487751 275.382592 
z
" clip-path="url(#pb7aed9b54c)" style="fill: #e34948"/>
   </g>
   <g id="patch_131">
    <path d="M 755.606459 276.275781 
L 760.725167 276.275781 
L 760.725167 274.221446 
L 755.606459 274.221446 
z
" clip-path="url(#pb7aed9b54c)" style="fill: #e34948"/>
   </g>
   <g id="patch_132">
    <path d="M 760.725167 276.275781 
L 765.843876 276.275781 
L 765.843876 233.134746 
L 760.725167 233.134746 
z
" clip-path="url(#pb7aed9b54c)" style="fill: #e34948"/>
   </g>
   <g id="text_33">
    <text style="font-size: 8.5px; font-family: 'DejaVu Sans', sans-serif; fill: #0b0b0b" transform="translate(622.675528 53.411254)">mean +0.462</text>
    <text style="font-size: 8.5px; font-family: 'DejaVu Sans', sans-serif; fill: #0b0b0b" transform="translate(622.675528 63.613578)">CI95 [0.387, 0.537]</text>
   </g>
   <g id="text_34">
    <text style="font-size: 9px; font-family: 'DejaVu Sans', sans-serif; text-anchor: start; fill: #2a78d6" x="463.840094" y="52.94101" transform="rotate(-0 463.840094 52.94101)">← B better</text>
   </g>
   <g id="text_35">
    <text style="font-size: 9px; font-family: 'DejaVu Sans', sans-serif; text-anchor: end; fill: #e34948" x="760.725167" y="85.115078" transform="rotate(-0 760.725167 85.115078)">B worse →</text>
   </g>
   <g id="text_36">
    <text style="font-size: 10.5px; font-family: 'DejaVu Sans', sans-serif; text-anchor: middle; fill: #0b0b0b" x="612.282631" y="18.777539" transform="rotate(-0 612.282631 18.777539)">aux-off effect per frame (n=17,204; 647 beyond ±12 clipped)</text>
   </g>
   <g id="line2d_38">
    <path d="M 612.282631 276.275781 
L 612.282631 28.777539 
" clip-path="url(#pb7aed9b54c)" style="fill: none; stroke: #c3c2b7; stroke-width: 1.2; stroke-linecap: square"/>
   </g>
   <g id="line2d_39">
    <path d="M 618.196658 276.275781 
L 618.196658 28.777539 
" clip-path="url(#pb7aed9b54c)" style="fill: none; stroke: #0b0b0b; stroke-width: 1.4; stroke-linecap: square"/>
   </g>
  </g>
 </g>
 <defs>
  <clipPath id="pcc8b4115c5">
   <rect x="43.522227" y="28.777539" width="337.834739" height="247.498242"/>
  </clipPath>
  <clipPath id="pb7aed9b54c">
   <rect x="443.365261" y="28.777539" width="337.834739" height="247.498242"/>
  </clipPath>
 </defs>
</svg>
